<?xml version="1.0" encoding="UTF-8" standalone="no"?>
<svg
   xmlns:dc="http://purl.org/dc/elements/1.1/"
   xmlns:cc="http://creativecommons.org/ns#"
   xmlns:rdf="http://www.w3.org/1999/02/22-rdf-syntax-ns#"
   xmlns:svg="http://www.w3.org/2000/svg"
   xmlns="http://www.w3.org/2000/svg"
   xmlns:sodipodi="http://sodipodi.sourceforge.net/DTD/sodipodi-0.dtd"
   xmlns:inkscape="http://www.inkscape.org/namespaces/inkscape"
   viewBox="0 0 16 16"
   version="1.1"
   id="svg6"
   sodipodi:docname="wifi-040.svg"
   inkscape:version="1.0.2 (394de47547, 2021-03-26)">
  <metadata
     id="metadata12">
    <rdf:RDF>
      <cc:Work
         rdf:about="">
        <dc:format>image/svg+xml</dc:format>
        <dc:type
           rdf:resource="http://purl.org/dc/dcmitype/StillImage" />
      </cc:Work>
    </rdf:RDF>
  </metadata>
  <defs
     id="defs10" />
  <sodipodi:namedview
     pagecolor="#ffffff"
     bordercolor="#666666"
     borderopacity="1"
     objecttolerance="10"
     gridtolerance="10"
     guidetolerance="10"
     inkscape:pageopacity="0"
     inkscape:pageshadow="2"
     inkscape:window-width="1832"
     inkscape:window-height="1025"
     id="namedview8"
     showgrid="false"
     inkscape:zoom="52.4375"
     inkscape:cx="8"
     inkscape:cy="7.9809297"
     inkscape:window-x="88"
     inkscape:window-y="27"
     inkscape:window-maximized="1"
     inkscape:current-layer="svg6" />
  <path
     d="m 8 1.882 c -3.111 0 -4.977 0.876 -7 2.39 l 7 9.846 l 7 -9.846 c -2.023 -1.514 -3.889 -2.39 -7 -2.39"
     style="fill:#ececec;opacity:0.4;fill-opacity:1;color:#000"
     id="path2" />
  <path
     d="m 8 8 c -1.556 0 -2.488 0.438 -3.5 1.195 l 3.5 4.923 3.5 -4.923 c -1.012 -0.757 -1.944 -1.195 -3.5 -1.195"
     style="fill:#ececec;fill-opacity:1;color:#000"
     id="path4" />
  <path
     style="fill:#2485da;stroke-width:0.0190703"
     d="M 7.5132192,13.421036 C 7.2468651,13.045902 6.9250605,12.593087 6.7980977,12.414779 5.9858865,11.274104 4.6572582,9.4032236 4.5590707,9.2619395 4.5345086,9.2265966 4.5223509,9.1915821 4.5316242,9.1828929 4.5702971,9.1466561 4.9053378,8.91463 5.0737481,8.8074553 6.0207071,8.2048191 7.0630688,7.9552786 8.3623361,8.0201699 c 1.1458435,0.057229 1.9455829,0.3393872 2.9332459,1.0348871 0.108544,0.076435 0.183303,0.1417112 0.178032,0.1554479 -0.005,0.013025 -0.188662,0.2759056 -0.408142,0.5841803 -0.526592,0.7396338 -1.5690355,2.2063418 -2.3840269,3.3543018 -0.3611508,0.508701 -0.6627823,0.93148 -0.670292,0.93951 -0.00751,0.008 -0.2315801,-0.292327 -0.4979339,-0.667461 z"
     id="path837" />
</svg>
