<?xml version="1.0" encoding="UTF-8" standalone="no"?>
<svg
   xmlns:dc="http://purl.org/dc/elements/1.1/"
   xmlns:cc="http://creativecommons.org/ns#"
   xmlns:rdf="http://www.w3.org/1999/02/22-rdf-syntax-ns#"
   xmlns:svg="http://www.w3.org/2000/svg"
   xmlns="http://www.w3.org/2000/svg"
   xmlns:sodipodi="http://sodipodi.sourceforge.net/DTD/sodipodi-0.dtd"
   xmlns:inkscape="http://www.inkscape.org/namespaces/inkscape"
   viewBox="0 0 16 16"
   version="1.1"
   id="svg4"
   sodipodi:docname="wifi-100.svg"
   inkscape:version="1.0.2 (394de47547, 2021-03-26)">
  <metadata
     id="metadata10">
    <rdf:RDF>
      <cc:Work
         rdf:about="">
        <dc:format>image/svg+xml</dc:format>
        <dc:type
           rdf:resource="http://purl.org/dc/dcmitype/StillImage" />
      </cc:Work>
    </rdf:RDF>
  </metadata>
  <defs
     id="defs8" />
  <sodipodi:namedview
     pagecolor="#ffffff"
     bordercolor="#666666"
     borderopacity="1"
     objecttolerance="10"
     gridtolerance="10"
     guidetolerance="10"
     inkscape:pageopacity="0"
     inkscape:pageshadow="2"
     inkscape:window-width="1832"
     inkscape:window-height="1025"
     id="namedview6"
     showgrid="false"
     inkscape:zoom="52.4375"
     inkscape:cx="8"
     inkscape:cy="7.9809297"
     inkscape:window-x="88"
     inkscape:window-y="27"
     inkscape:window-maximized="1"
     inkscape:current-layer="svg4" />
  <path
     d="m 8 1.882 c -3.111 0 -4.977 0.876 -7 2.39 l 7 9.846 l 7 -9.846 c -2.023 -1.514 -3.889 -2.39 -7 -2.39"
     style="fill:#ececec;fill-opacity:1;color:#000"
     id="path2" />
  <path
     style="fill:#2485da;stroke-width:0.0190703"
     d="M 4.5189462,9.2083078 C 2.6051587,6.5167575 1.0336109,4.304837 1.0266177,4.2929291 1.0033964,4.2533881 1.8574908,3.6582106 2.4123957,3.3272466 2.7600282,3.1199069 3.4099974,2.7913598 3.7473182,2.6524686 4.7510268,2.2391935 5.8603728,1.995573 7.0941597,1.9174776 c 0.4048738,-0.025627 1.4068068,-0.025627 1.8116806,0 2.2193857,0.1404811 3.8948917,0.7640461 5.8242947,2.1676001 0.140714,0.1023624 0.250611,0.1948214 0.244217,0.2054642 -0.01684,0.028031 -6.9482096,9.7806601 -6.9632064,9.7974251 -0.00692,0.0077 -1.5784118,-2.188109 -3.4921994,-4.8796592 z"
     id="path835" />
</svg>
