<?xml version="1.0" encoding="UTF-8" standalone="no"?>
<svg
   xmlns:dc="http://purl.org/dc/elements/1.1/"
   xmlns:cc="http://creativecommons.org/ns#"
   xmlns:rdf="http://www.w3.org/1999/02/22-rdf-syntax-ns#"
   xmlns:svg="http://www.w3.org/2000/svg"
   xmlns="http://www.w3.org/2000/svg"
   xmlns:sodipodi="http://sodipodi.sourceforge.net/DTD/sodipodi-0.dtd"
   xmlns:inkscape="http://www.inkscape.org/namespaces/inkscape"
   viewBox="0 0 16 16"
   version="1.1"
   id="svg6"
   sodipodi:docname="wifi-020.svg"
   inkscape:version="1.0.2 (394de47547, 2021-03-26)">
  <metadata
     id="metadata12">
    <rdf:RDF>
      <cc:Work
         rdf:about="">
        <dc:format>image/svg+xml</dc:format>
        <dc:type
           rdf:resource="http://purl.org/dc/dcmitype/StillImage" />
      </cc:Work>
    </rdf:RDF>
  </metadata>
  <defs
     id="defs10" />
  <sodipodi:namedview
     pagecolor="#ffffff"
     bordercolor="#666666"
     borderopacity="1"
     objecttolerance="10"
     gridtolerance="10"
     guidetolerance="10"
     inkscape:pageopacity="0"
     inkscape:pageshadow="2"
     inkscape:window-width="1832"
     inkscape:window-height="1025"
     id="namedview8"
     showgrid="false"
     inkscape:zoom="52.4375"
     inkscape:cx="8"
     inkscape:cy="7.9809297"
     inkscape:window-x="88"
     inkscape:window-y="27"
     inkscape:window-maximized="1"
     inkscape:current-layer="svg6" />
  <path
     d="m 8 1.882 c -3.111 0 -4.977 0.876 -7 2.39 l 7 9.846 l 7 -9.846 c -2.023 -1.514 -3.889 -2.39 -7 -2.39"
     style="fill:#ececec;opacity:0.4;fill-opacity:1;color:#000"
     id="path2" />
  <path
     d="m 8 11.06 c -0.778 0 -1.244 0.219 -1.75 0.597 l 1.75 2.461 1.75 -2.461 c -0.506 -0.378 -0.972 -0.597 -1.75 -0.597"
     style="fill:#ececec;fill-opacity:1;color:#000"
     id="path4" />
  <path
     style="fill:#2485da;stroke-width:0.0190703"
     d="M 7.8179826,13.850249 C 7.719393,13.711039 7.5134253,13.421216 7.3602766,13.206198 6.4524531,11.93163 6.2741359,11.678578 6.2741359,11.664843 c 0,-0.03852 0.3100981,-0.237806 0.5417135,-0.348132 C 7.1765386,11.144903 7.5326272,11.071021 8,11.071021 c 0.6174997,0 1.052459,0.127625 1.5494636,0.454641 0.09702,0.06384 0.1764005,0.124549 0.1764005,0.134917 0,0.01541 -1.6697102,2.379441 -1.7149249,2.428049 -0.00754,0.0081 -0.094367,-0.09917 -0.1929566,-0.238379 z"
     id="path841" />
</svg>
