<?xml version="1.0" encoding="UTF-8" standalone="no"?>
<svg
   xmlns:dc="http://purl.org/dc/elements/1.1/"
   xmlns:cc="http://creativecommons.org/ns#"
   xmlns:rdf="http://www.w3.org/1999/02/22-rdf-syntax-ns#"
   xmlns:svg="http://www.w3.org/2000/svg"
   xmlns="http://www.w3.org/2000/svg"
   xmlns:sodipodi="http://sodipodi.sourceforge.net/DTD/sodipodi-0.dtd"
   xmlns:inkscape="http://www.inkscape.org/namespaces/inkscape"
   viewBox="0 0 16 16"
   version="1.1"
   id="svg6"
   sodipodi:docname="wifi-080.svg"
   inkscape:version="1.0.2 (394de47547, 2021-03-26)">
  <metadata
     id="metadata12">
    <rdf:RDF>
      <cc:Work
         rdf:about="">
        <dc:format>image/svg+xml</dc:format>
        <dc:type
           rdf:resource="http://purl.org/dc/dcmitype/StillImage" />
      </cc:Work>
    </rdf:RDF>
  </metadata>
  <defs
     id="defs10" />
  <sodipodi:namedview
     pagecolor="#ffffff"
     bordercolor="#666666"
     borderopacity="1"
     objecttolerance="10"
     gridtolerance="10"
     guidetolerance="10"
     inkscape:pageopacity="0"
     inkscape:pageshadow="2"
     inkscape:window-width="1832"
     inkscape:window-height="1025"
     id="namedview8"
     showgrid="false"
     inkscape:zoom="52.4375"
     inkscape:cx="8"
     inkscape:cy="7.9809297"
     inkscape:window-x="88"
     inkscape:window-y="27"
     inkscape:window-maximized="1"
     inkscape:current-layer="svg6" />
  <path
     d="m 8 1.882 c -3.111 0 -4.977 0.876 -7 2.39 l 7 9.846 l 7 -9.846 c -2.023 -1.514 -3.889 -2.39 -7 -2.39"
     style="fill:#ececec;opacity:0.4;fill-opacity:1;color:#000"
     id="path2" />
  <path
     d="m 8 4.941 c -2.333 0 -3.732 0.657 -5.25 1.792 l 5.25 7.384 5.25 -7.384 c -1.517 -1.135 -2.917 -1.792 -5.25 -1.792"
     style="fill:#ececec;fill-opacity:1;color:#000"
     id="path4" />
  <path
     style="fill:#2485da;stroke-width:0.0190703"
     d="M 7.7694633,13.783075 C 7.6445481,13.60739 7.5032872,13.407867 7.4555501,13.33969 7.4078131,13.271514 6.8892165,12.542074 6.3031128,11.718713 5.7170094,10.895352 5.1890798,10.153039 5.1299358,10.06913 5.0707921,9.9852205 4.9279016,9.7835518 4.8124016,9.6209774 3.307302,7.502441 2.9355153,6.9801947 2.8574372,6.874851 2.8069066,6.8066746 2.7654808,6.7461128 2.76538,6.7402692 2.7650384,6.7204749 3.1115822,6.4739887 3.4803337,6.2317441 4.8366484,5.340738 6.2178994,4.9486243 7.9996745,4.9487802 c 1.7856799,1.563e-4 3.1244435,0.3784761 4.5104565,1.2746049 0.207478,0.1341448 0.724672,0.498846 0.724672,0.5110043 0,0.0051 -0.1357,0.1996933 -0.301556,0.4324338 -0.165857,0.2327407 -0.493481,0.6934867 -0.728055,1.02388 -0.647831,0.9124615 -1.017497,1.432251 -1.220624,1.716329 -0.160287,0.2241648 -0.460337,0.6462888 -1.3419783,1.8879618 -0.1154349,0.162575 -0.3441701,0.484386 -0.5083003,0.715137 -0.6237145,0.876881 -1.0190642,1.433146 -1.0741305,1.511323 -0.031399,0.04458 -0.058549,0.08105 -0.060333,0.08105 -0.00178,0 -0.1054474,-0.143743 -0.2303624,-0.319428 z"
     id="path837" />
</svg>
