<?xml version="1.0" encoding="UTF-8" standalone="no"?>
<!-- Created with Inkscape (http://www.inkscape.org/) -->

<svg
   width="128.0px"
   height="128.0px"
   viewBox="0 0 128.0 128.0"
   version="1.1"
   id="SVGRoot"
   sodipodi:docname="googlemaps.svg"
   inkscape:version="1.1.1 (3bf5ae0d25, 2021-09-20)"
   xmlns:inkscape="http://www.inkscape.org/namespaces/inkscape"
   xmlns:sodipodi="http://sodipodi.sourceforge.net/DTD/sodipodi-0.dtd"
   xmlns="http://www.w3.org/2000/svg"
   xmlns:svg="http://www.w3.org/2000/svg">
  <sodipodi:namedview
     id="namedview937"
     pagecolor="#ffffff"
     bordercolor="#666666"
     borderopacity="1.0"
     inkscape:pageshadow="2"
     inkscape:pageopacity="0.0"
     inkscape:pagecheckerboard="0"
     inkscape:document-units="px"
     showgrid="true"
     inkscape:zoom="3.9408307"
     inkscape:cx="29.181665"
     inkscape:cy="57.221438"
     inkscape:window-width="1852"
     inkscape:window-height="1016"
     inkscape:window-x="0"
     inkscape:window-y="0"
     inkscape:window-maximized="1"
     inkscape:current-layer="layer1">
    <inkscape:grid
       type="xygrid"
       id="grid1000" />
  </sodipodi:namedview>
  <defs
     id="defs932" />
  <g
     inkscape:label="Layer 1"
     inkscape:groupmode="layer"
     id="layer1">
    <g
       id="g1030"
       transform="matrix(1.8508653,0,0,1.8508653,29.227288,17.232056)">
      <path
         d="m 9.835,37.67 a 51.38,51.38 0 0 1 4.007,5.91 c 1.022,1.938 1.448,3.252 2.195,5.587 0.458,1.29 0.872,1.675 1.762,1.675 0.97,0 1.41,-0.655 1.75,-1.668 0.706,-2.205 1.26,-3.888 2.134,-5.478 1.715,-3.07 3.846,-5.798 5.94,-8.42 0.567,-0.742 4.232,-5.065 5.882,-8.476 0,0 2.028,-3.747 2.028,-8.98 0,-4.895 -2,-8.29 -2,-8.29 l -5.758,1.542 -3.497,9.21 -0.865,1.27 -0.173,0.23 -0.23,0.288 -0.404,0.46 -0.577,0.577 -3.114,2.537 -7.785,4.495 z"
         fill="#34a853"
         id="path2" />
      <path
         d="m 1.8,26.17 c 1.9,4.34 5.564,8.155 8.043,11.503 L 23.01,22.076 c 0,0 -1.855,2.426 -5.22,2.426 -3.748,0 -6.776,-2.993 -6.776,-6.767 0,-2.588 1.557,-4.366 1.557,-4.366 l -8.938,2.395 z"
         fill="#fbbc04"
         id="path4" />
      <path
         d="m 23.157,0.792 c 4.373,1.41 8.116,4.37 10.38,8.735 l -10.523,12.54 c 0,0 1.557,-1.81 1.557,-4.382 0,-3.862 -3.252,-6.747 -6.765,-6.747 -3.322,0 -5.23,2.422 -5.23,2.422 v -7.9 z"
         fill="#4285f4"
         id="path6" />
      <path
         d="M 4.212,6.333 C 6.824,3.208 11.42,-0.01 17.756,-0.01 c 3.074,0 5.39,0.807 5.39,0.807 l -10.58,12.57 H 5.07 Z"
         fill="#1a73e8"
         id="path8" />
      <path
         d="m 1.8,26.17 c 0,0 -1.748,-3.423 -1.748,-8.382 0,-4.687 1.822,-8.784 4.16,-11.455 l 8.36,7.035 z"
         fill="#ea4335"
         id="path10" />
    </g>
  </g>
</svg>
