<?xml version="1.0" encoding="UTF-8" standalone="no"?>
<svg
   viewBox="0 0 24 24"
   width="24"
   height="24"
   version="1.1"
   id="svg10"
   sodipodi:docname="breeze-onboard.svg"
   inkscape:version="1.1.1 (3bf5ae0d25, 2021-09-20)"
   xmlns:inkscape="http://www.inkscape.org/namespaces/inkscape"
   xmlns:sodipodi="http://sodipodi.sourceforge.net/DTD/sodipodi-0.dtd"
   xmlns="http://www.w3.org/2000/svg"
   xmlns:svg="http://www.w3.org/2000/svg">
  <sodipodi:namedview
     id="namedview12"
     pagecolor="#ffffff"
     bordercolor="#666666"
     borderopacity="1.0"
     inkscape:pageshadow="2"
     inkscape:pageopacity="0.0"
     inkscape:pagecheckerboard="0"
     showgrid="false"
     inkscape:zoom="26.25"
     inkscape:cx="11.980952"
     inkscape:cy="12.038095"
     inkscape:window-width="1920"
     inkscape:window-height="1005"
     inkscape:window-x="0"
     inkscape:window-y="0"
     inkscape:window-maximized="1"
     inkscape:current-layer="svg10" />
  <defs
     id="defs3051">
    <style
       type="text/css"
       id="current-color-scheme">
      .ColorScheme-Text {
        color:#232629;
      }
      .ColorScheme-NegativeText {
        color:#da4453;
      }
      </style>
  </defs>
  <path
     style="fill:currentColor;fill-opacity:1;stroke:none"
     d="M 2.9672759,6.6821556 V 17.682156 H 20.967275 V 6.6821556 Z m 1,1 h 6.9999991 1 8 v 1 H 3.9672759 Z m 0,1.9999999 H 19.967275 v 7.0000005 h -4 -7.9999991 -4 z m 1,1.0000005 v 1 h 2 v -1 z m 3,0 v 1 h 2 v -1 z m 2.9999991,0 v 1 h 2 v -1 z m 3,0 v 1 h 2 v -1 z m 3,0 v 1 h 2 v -1 z m -11.9999991,2 v 1 h 2 v -1 z m 3,0 v 1 h 2 v -1 z m 2.9999991,0 v 1 h 2 v -1 z m 3,0 v 1 h 2 v -1 z m 3,0 v 1 h 2 v -1 z m -11.9999991,2 v 1 h 2 v -1 z m 3,0 v 1 h 7.9999991 v -1 z m 8.9999991,0 v 1 h 2 v -1 z"
     class="ColorScheme-Text"
     id="path4" />
</svg>
