<?xml version="1.0" encoding="UTF-8" standalone="no"?>
<svg
   viewBox="0 0 22 22"
   version="1.1"
   id="svg6"
   sodipodi:docname="breeze-w040.svg"
   inkscape:version="1.1 (ce6663b3b7, 2021-05-25)"
   xmlns:inkscape="http://www.inkscape.org/namespaces/inkscape"
   xmlns:sodipodi="http://sodipodi.sourceforge.net/DTD/sodipodi-0.dtd"
   xmlns="http://www.w3.org/2000/svg"
   xmlns:svg="http://www.w3.org/2000/svg">
  <sodipodi:namedview
     id="namedview8"
     pagecolor="#ffffff"
     bordercolor="#666666"
     borderopacity="1.0"
     inkscape:pageshadow="2"
     inkscape:pageopacity="0.0"
     inkscape:pagecheckerboard="0"
     showgrid="false"
     inkscape:zoom="33.045455"
     inkscape:cx="10.984869"
     inkscape:cy="10.984869"
     inkscape:window-width="1832"
     inkscape:window-height="1025"
     inkscape:window-x="0"
     inkscape:window-y="0"
     inkscape:window-maximized="1"
     inkscape:current-layer="svg6" />
  <defs
     id="defs3051">
    <style
       type="text/css"
       id="current-color-scheme">
      .ColorScheme-Text {
        color:#232629;
      }
      </style>
  </defs>
  <path
     style="fill:#3eb4f1;fill-opacity:1;stroke:none;opacity:0.5"
     d="M 11 3 C 6.845001 3 3.0940644 4.6715125 0.3828125 7.3828125 L 1.0917969 8.0917969 C 3.6222976 5.5612969 7.1220066 4 11 4 C 14.878001 4 18.377702 5.5612969 20.908203 8.0917969 L 21.617188 7.3828125 C 18.905936 4.6715125 15.155007 3 11 3 z M 11 7 C 7.9530063 7 5.2030906 8.2265438 3.2148438 10.214844 L 3.921875 10.921875 C 5.7293791 9.114375 8.2300034 8 11 8 C 13.770004 8 16.270612 9.114375 18.078125 10.921875 L 18.785156 10.214844 C 16.796909 8.2265438 14.047002 7 11 7 z "
     class="ColorScheme-Text"
     id="rect4152-67" />
  <path
     style="fill:#3eb4f1;fill-opacity:1;stroke:none"
     d="M 11 11 C 9.0610031 11 7.3101723 11.779722 6.0449219 13.044922 L 6.7539062 13.753906 C 7.8384139 12.669406 9.3380002 12 11 12 C 12.661999 12 14.161595 12.669406 15.246094 13.753906 L 15.955078 13.044922 C 14.689828 11.779722 12.939005 11 11 11 z M 11 15 C 9.8920029 15 9 15.892 9 17 C 9 18.108 9.8920029 19 11 19 C 12.108005 19 13 18.108 13 17 C 13 15.892 12.108005 15 11 15 z M 11 16 C 11.554002 16 12 16.446 12 17 C 12 17.554 11.554002 18 11 18 C 10.446006 18 10 17.554 10 17 C 10 16.446 10.446006 16 11 16 z "
     class="ColorScheme-Text"
     id="rect4208-3" />
</svg>
