<?xml version="1.0" encoding="UTF-8" standalone="no"?>
<svg
   viewBox="0 0 22 22"
   version="1.1"
   id="svg8"
   sodipodi:docname="breeze-w020.svg"
   inkscape:version="1.1 (ce6663b3b7, 2021-05-25)"
   xmlns:inkscape="http://www.inkscape.org/namespaces/inkscape"
   xmlns:sodipodi="http://sodipodi.sourceforge.net/DTD/sodipodi-0.dtd"
   xmlns="http://www.w3.org/2000/svg"
   xmlns:svg="http://www.w3.org/2000/svg">
  <sodipodi:namedview
     id="namedview10"
     pagecolor="#ffffff"
     bordercolor="#666666"
     borderopacity="1.0"
     inkscape:pageshadow="2"
     inkscape:pageopacity="0.0"
     inkscape:pagecheckerboard="0"
     showgrid="false"
     inkscape:zoom="33.045455"
     inkscape:cx="10.984869"
     inkscape:cy="10.984869"
     inkscape:window-width="1832"
     inkscape:window-height="1025"
     inkscape:window-x="0"
     inkscape:window-y="0"
     inkscape:window-maximized="1"
     inkscape:current-layer="svg8" />
  <defs
     id="defs3051">
    <style
       type="text/css"
       id="current-color-scheme">
      .ColorScheme-Text {
        color:#232629;
      }
      </style>
  </defs>
  <path
     style="opacity:0.5;fill:#3eb4f1;fill-opacity:1;stroke:none"
     d="M 11,3 C 6.845001,3 3.0940644,4.6715125 0.3828125,7.3828125 L 1.0917969,8.0917969 C 3.6222976,5.5612969 7.1220066,4 11,4 c 3.878001,0 7.377702,1.5612969 9.908203,4.0917969 L 21.617188,7.3828125 C 18.905936,4.6715125 15.155007,3 11,3 Z m 0,4 C 7.9530063,7 5.2030906,8.2265438 3.2148438,10.214844 L 3.921875,10.921875 C 5.7293791,9.114375 8.2300034,8 11,8 c 2.770004,0 5.270612,1.114375 7.078125,2.921875 l 0.707031,-0.707031 C 16.796909,8.2265438 14.047002,7 11,7 Z m 0,4 c -1.9389969,0 -3.6898277,0.779722 -4.9550781,2.044922 l 0.7089843,0.708984 C 7.8384139,12.669406 9.3380002,12 11,12 c 1.661999,0 3.161595,0.669406 4.246094,1.753906 l 0.708984,-0.708984 C 14.689828,11.779722 12.939005,11 11,11 Z"
     class="ColorScheme-Text"
     id="rect4152-67" />
  <path
     style="fill:#3eb4f1;fill-opacity:1;stroke:none"
     d="m 10.999995,15 c -1.1079971,0 -1.9999961,0.892 -1.9999961,2 0,1.108 0.891999,2 1.9999961,2 1.108005,0 2.000004,-0.892 2.000004,-2 0,-1.108 -0.891999,-2 -2.000004,-2 z m 0,1 c 0.554002,0 1.000002,0.446 1.000002,1 0,0.554 -0.446,1 -1.000002,1 -0.553994,0 -0.999994,-0.446 -0.999994,-1 0,-0.554 0.446,-1 0.999994,-1 z"
     class="ColorScheme-Text"
     id="rect4155-66" />
</svg>
