<?xml version="1.0" encoding="UTF-8" standalone="no"?>
<svg
   viewBox="0 0 32 32"
   version="1.1"
   id="svg9"
   sodipodi:docname="breeze-suspend.svg"
   inkscape:version="1.1 (ce6663b3b7, 2021-05-25)"
   xmlns:inkscape="http://www.inkscape.org/namespaces/inkscape"
   xmlns:sodipodi="http://sodipodi.sourceforge.net/DTD/sodipodi-0.dtd"
   xmlns="http://www.w3.org/2000/svg"
   xmlns:svg="http://www.w3.org/2000/svg">
  <defs
     id="defs13" />
  <sodipodi:namedview
     id="namedview11"
     pagecolor="#ffffff"
     bordercolor="#666666"
     borderopacity="1.0"
     inkscape:pageshadow="2"
     inkscape:pageopacity="0.0"
     inkscape:pagecheckerboard="0"
     showgrid="false"
     inkscape:zoom="22.71875"
     inkscape:cx="15.977992"
     inkscape:cy="15.977992"
     inkscape:window-width="1832"
     inkscape:window-height="1025"
     inkscape:window-x="0"
     inkscape:window-y="0"
     inkscape:window-maximized="1"
     inkscape:current-layer="svg9" />
  <style
     type="text/css"
     id="current-color-scheme">
        .ColorScheme-Text {
            color:#232629;
        }
    </style>
  <g
     class="ColorScheme-Text"
     fill="currentColor"
     id="g7"
     style="fill:#3daee9;fill-opacity:1">
    <path
       d="M9.762 5.762a12 12 0 0 0-.004.008A12 12 0 0 0 4 16a12 12 0 0 0 12 12 12 12 0 0 0 10.238-5.762l-.732-.732A11 11 0 0 1 20 23 11 11 0 0 1 9 12a11 11 0 0 1 1.486-5.502 11 11 0 0 1 .008-.004zM8.8 7.702A12 12 0 0 0 8 12a12 12 0 0 0 12 12 12 12 0 0 0 4.326-.82A11 11 0 0 1 16 27 11 11 0 0 1 5 16a11 11 0 0 1 3.8-8.299zM22 6v1h2.293l-2 2-.293.293V10h4V9h-2.293l2-2L26 6.707V6h-.707z"
       id="path3"
       style="fill:#3daee9;fill-opacity:1" />
    <path
       d="M20 13v1h2.293l-2 2-.293.293V17h4v-1h-2.293l2-2 .293-.293V13h-.707zm-6-5v1h2.293l-2 2-.293.293V12h4v-1h-2.293l2-2L18 8.707V8h-.707z"
       id="path5"
       style="fill:#3daee9;fill-opacity:1" />
  </g>
</svg>
