<?xml version="1.0" encoding="UTF-8" standalone="no"?>
<svg
   viewBox="0 0 22 22"
   version="1.1"
   id="svg6"
   sodipodi:docname="breeze-cloud-light.svg"
   inkscape:version="1.1 (ce6663b3b7, 2021-05-25)"
   xmlns:inkscape="http://www.inkscape.org/namespaces/inkscape"
   xmlns:sodipodi="http://sodipodi.sourceforge.net/DTD/sodipodi-0.dtd"
   xmlns="http://www.w3.org/2000/svg"
   xmlns:svg="http://www.w3.org/2000/svg">
  <sodipodi:namedview
     id="namedview8"
     pagecolor="#ffffff"
     bordercolor="#666666"
     borderopacity="1.0"
     inkscape:pageshadow="2"
     inkscape:pageopacity="0.0"
     inkscape:pagecheckerboard="0"
     showgrid="false"
     inkscape:zoom="33.045455"
     inkscape:cx="10.984869"
     inkscape:cy="10.984869"
     inkscape:window-width="1832"
     inkscape:window-height="1025"
     inkscape:window-x="0"
     inkscape:window-y="0"
     inkscape:window-maximized="1"
     inkscape:current-layer="svg6" />
  <defs
     id="defs3051">
    <style
       type="text/css"
       id="current-color-scheme">
      .ColorScheme-Text {
        color:#232629;
      }
      </style>
  </defs>
  <path
     style="fill:#ffffff;fill-opacity:1;stroke:none"
     d="M 11 4 A 6 6 0 0 0 5 10 A 6 6 0 0 0 5.0039062 10.128906 A 4 4 0 0 0 2 14 A 4 4 0 0 0 6 18 L 15 18 A 5 5 0 0 0 20 13 A 5 5 0 0 0 16.757812 8.3242188 A 6 6 0 0 0 11 4 z M 11 5 A 5 5 0 0 1 15.919922 9.1113281 A 4.0000019 4.0000019 0 0 1 19 13 A 4.0000019 4.0000019 0 0 1 15 17 L 6 17 A 2.9999979 2.9999979 0 0 1 3 14 A 2.9999979 2.9999979 0 0 1 6 11 A 2.9999979 2.9999979 0 0 1 6.1074219 11.005859 A 5 5 0 0 1 6 10 A 5 5 0 0 1 11 5 z "
     class="ColorScheme-Text"
     id="path4" />
</svg>
