<?xml version="1.0" encoding="UTF-8" standalone="no"?>
<svg
   viewBox="0 0 22 22"
   version="1.1"
   id="svg8"
   sodipodi:docname="breeze-w080.svg"
   inkscape:version="1.1 (ce6663b3b7, 2021-05-25)"
   xmlns:inkscape="http://www.inkscape.org/namespaces/inkscape"
   xmlns:sodipodi="http://sodipodi.sourceforge.net/DTD/sodipodi-0.dtd"
   xmlns="http://www.w3.org/2000/svg"
   xmlns:svg="http://www.w3.org/2000/svg">
  <sodipodi:namedview
     id="namedview10"
     pagecolor="#ffffff"
     bordercolor="#666666"
     borderopacity="1.0"
     inkscape:pageshadow="2"
     inkscape:pageopacity="0.0"
     inkscape:pagecheckerboard="0"
     showgrid="false"
     inkscape:zoom="33.045455"
     inkscape:cx="10.984869"
     inkscape:cy="10.984869"
     inkscape:window-width="1832"
     inkscape:window-height="1025"
     inkscape:window-x="0"
     inkscape:window-y="0"
     inkscape:window-maximized="1"
     inkscape:current-layer="svg8" />
  <defs
     id="defs3051">
    <style
       type="text/css"
       id="current-color-scheme">
      .ColorScheme-Text {
        color:#232629;
      }
      </style>
  </defs>
  <path
     id="rect4152-67"
     d="M 10.999995,3 C 6.844996,3 3.094062,4.6715 0.38281006,7.3828 L 1.0917944,8.0918 C 3.6222951,5.5613 7.1220016,4 10.999995,4 c 3.878001,0 7.377699,1.5613 9.9082,4.0918 l 0.708993,-0.709 C 18.905936,4.6715 15.155002,3 10.999995,3 Z"
     style="opacity:0.5;fill:#3eb4f1;fill-opacity:1;stroke:none"
     class="ColorScheme-Text" />
  <path
     style="fill:#3eb4f1;fill-opacity:1;stroke:none"
     d="M 11,7 C 7.9530063,7 5.2030906,8.2265438 3.2148438,10.214844 L 3.921875,10.921875 C 5.7293791,9.114375 8.2300034,8 11,8 c 2.770004,0 5.270612,1.114375 7.078125,2.921875 l 0.707031,-0.707031 C 16.796909,8.2265438 14.047002,7 11,7 Z m 0,4 c -1.9389969,0 -3.6898277,0.779722 -4.9550781,2.044922 l 0.7089843,0.708984 C 7.8384139,12.669406 9.3380002,12 11,12 c 1.661999,0 3.161595,0.669406 4.246094,1.753906 l 0.708984,-0.708984 C 14.689828,11.779722 12.939005,11 11,11 Z m 0,4 c -1.1079971,0 -2,0.892 -2,2 0,1.108 0.8920029,2 2,2 1.108005,0 2,-0.892 2,-2 0,-1.108 -0.891995,-2 -2,-2 z m 0,1 c 0.554002,0 1,0.446 1,1 0,0.554 -0.445998,1 -1,1 -0.553994,0 -1,-0.446 -1,-1 0,-0.554 0.446006,-1 1,-1 z"
     class="ColorScheme-Text"
     id="rect4204-8" />
</svg>
