<?xml version="1.0" encoding="UTF-8" standalone="no"?>
<svg
   xmlns:dc="http://purl.org/dc/elements/1.1/"
   xmlns:cc="http://creativecommons.org/ns#"
   xmlns:rdf="http://www.w3.org/1999/02/22-rdf-syntax-ns#"
   xmlns:svg="http://www.w3.org/2000/svg"
   xmlns="http://www.w3.org/2000/svg"
   xmlns:xlink="http://www.w3.org/1999/xlink"
   xmlns:sodipodi="http://sodipodi.sourceforge.net/DTD/sodipodi-0.dtd"
   xmlns:inkscape="http://www.inkscape.org/namespaces/inkscape"
   id="SVGRoot"
   version="1.1"
   viewBox="0 0 300.0 300.0"
   height="300.0px"
   width="300.0px"
   inkscape:version="1.0 (4035a4fb49, 2020-05-01)"
   sodipodi:docname="pyabr-blue-logo.svg">
  <defs
     id="defs1537">
    <clipPath
       clipPathUnits="userSpaceOnUse"
       id="clipPath990">
      <use
         x="0"
         y="0"
         xlink:href="#g986"
         id="use992"
         width="100%"
         height="100%" />
    </clipPath>
  </defs>
  <sodipodi:namedview
     id="base"
     pagecolor="#ffffff"
     bordercolor="#666666"
     borderopacity="1.0"
     inkscape:pageopacity="0.0"
     inkscape:pageshadow="2"
     inkscape:zoom="1.979899"
     inkscape:cx="317.70828"
     inkscape:cy="192.44937"
     inkscape:document-units="px"
     inkscape:current-layer="layer1"
     inkscape:document-rotation="0"
     showgrid="true"
     inkscape:window-width="1920"
     inkscape:window-height="1007"
     inkscape:window-x="0"
     inkscape:window-y="0"
     inkscape:window-maximized="1">
    <inkscape:grid
       id="grid2107"
       type="xygrid" />
  </sodipodi:namedview>
  <metadata
     id="metadata1540">
    <rdf:RDF>
      <cc:Work
         rdf:about="">
        <dc:format>image/svg+xml</dc:format>
        <dc:type
           rdf:resource="http://purl.org/dc/dcmitype/StillImage" />
        <dc:title />
      </cc:Work>
    </rdf:RDF>
  </metadata>
  <g
     inkscape:label="Layer 1"
     inkscape:groupmode="layer"
     id="layer1">
    <g
       style="stroke:none;stroke-opacity:1;fill:#abcdef;fill-opacity:1"
       transform="matrix(1.8206352,0,0,1.8206352,-77.232227,-76.289244)"
       id="g988"
       clip-path="url(#clipPath990)">
      <g
         style="stroke:none;stroke-opacity:1;fill:#abcdef;fill-opacity:1"
         inkscape:label="Clip"
         id="g986">
        <ellipse
           ry="25.5"
           rx="31"
           cy="141.5"
           cx="84"
           id="path849"
           style="fill:#abcdef;fill-opacity:1;stroke:none;stroke-opacity:1" />
        <ellipse
           ry="25.5"
           rx="31"
           cy="115.37584"
           cx="100.20816"
           id="path849-3"
           style="fill:#abcdef;fill-opacity:1;stroke:none;stroke-opacity:1" />
        <ellipse
           ry="30.980078"
           rx="37.187183"
           cy="107.4209"
           cx="139.2758"
           id="path849-6"
           style="fill:#abcdef;fill-opacity:1;stroke-width:1.20722;stroke:none;stroke-opacity:1" />
        <ellipse
           ry="34.869164"
           rx="48.854446"
           cy="133.93738"
           cx="149.17529"
           id="path849-7"
           style="fill:#abcdef;fill-opacity:1;stroke-width:1.46799;stroke:none;stroke-opacity:1" />
        <path
           inkscape:connector-curvature="0"
           inkscape:connector-type="polyline"
           id="path942"
           d="m 79.878832,166.19915 66.733198,2.03293"
           style="fill:#abcdef;fill-rule:evenodd;stroke:none;stroke-width:1px;stroke-linecap:butt;stroke-linejoin:miter;stroke-opacity:1;fill-opacity:1" />
        <path
           inkscape:connector-curvature="0"
           id="path944"
           d="m 114.15062,166.98411 c -11.37558,-0.35522 -21.1204,-0.65098 -21.65515,-0.65723 l -0.97227,-0.0114 1.32583,-0.3347 c 2.53889,-0.64095 4.53496,-1.34759 6.65388,-2.35562 3.95265,-1.88038 7.61466,-4.66678 10.11381,-7.69554 l 0.66599,-0.80712 1.00587,0.88139 c 6.102,5.34678 14.2565,9.24573 23.72169,11.34216 l 1.32582,0.29365 -0.7513,-0.005 c -0.41321,-0.003 -10.05859,-0.29551 -21.43417,-0.65073 z"
           style="fill:#abcdef;fill-opacity:1;stroke:none;stroke-width:0.0883884;stroke-opacity:1" />
        <path
           inkscape:connector-curvature="0"
           id="path972"
           d="m 130.15313,168.21941 c -6.30782,-0.19409 -13.59219,-0.41759 -16.1875,-0.49667 -2.59532,-0.0791 -9.78829,-0.2987 -15.98438,-0.48804 -10.00923,-0.30586 -11.32836,-0.34054 -11.82813,-0.31098 -0.30937,0.0183 -1.03359,0.0417 -1.60937,0.052 -4.0138,0.0719 -8.206278,-0.55508 -11.976563,-1.79094 L 72.23125,165.07469 V 151.68665 138.2986 h 34.79688 34.79687 v 15.14063 15.14062 l -0.10156,-0.004 c -0.0559,-0.002 -5.2625,-0.16257 -11.57031,-0.35666 z m 5.22591,-0.84594 c -0.0104,-0.0104 -0.0373,-0.0115 -0.0599,-0.002 -0.0249,0.01 -0.0175,0.0174 0.0189,0.0189 0.0329,0.001 0.0514,-0.006 0.041,-0.0164 z m -0.13998,-0.0331 c -0.0215,-0.009 -0.0566,-0.009 -0.0781,0 -0.0215,0.009 -0.004,0.0158 0.0391,0.0158 0.043,0 0.0606,-0.007 0.0391,-0.0158 z m -0.14127,-0.0294 c -0.0104,-0.0104 -0.0373,-0.0115 -0.0599,-0.002 -0.0249,0.01 -0.0175,0.0174 0.0189,0.0189 0.0329,0.001 0.0514,-0.006 0.041,-0.0164 z m -0.28125,-0.0625 c -0.0104,-0.0104 -0.0373,-0.0115 -0.0599,-0.002 -0.0249,0.01 -0.0175,0.0174 0.0189,0.0189 0.0329,0.001 0.0514,-0.006 0.041,-0.0164 z m -0.28125,-0.0625 c -0.0104,-0.0104 -0.0373,-0.0115 -0.0599,-0.002 -0.0249,0.01 -0.0175,0.0174 0.0189,0.0189 0.0329,0.001 0.0514,-0.006 0.041,-0.0164 z m -0.40625,-0.0937 c -0.0104,-0.0104 -0.0373,-0.0115 -0.0599,-0.002 -0.0249,0.01 -0.0175,0.0174 0.0189,0.0189 0.0329,0.001 0.0514,-0.006 0.041,-0.0164 z m -41.56967,-1.07276 c 0.12032,-0.0324 0.19766,-0.0599 0.17188,-0.0611 -0.0258,-10e-4 -0.14531,0.0244 -0.26563,0.0569 -0.12031,0.0324 -0.19765,0.0599 -0.17187,0.0611 0.0258,10e-4 0.14531,-0.0244 0.26562,-0.0569 z m 0.31967,-0.0835 c -0.0104,-0.0104 -0.0373,-0.0115 -0.0599,-0.002 -0.0249,0.01 -0.0175,0.0174 0.0189,0.0189 0.0329,0.001 0.0514,-0.006 0.041,-0.0164 z m 0.125,-0.0312 c -0.0104,-0.0104 -0.0373,-0.0115 -0.0599,-0.002 -0.0249,0.01 -0.0175,0.0174 0.0189,0.0189 0.0329,0.001 0.0514,-0.006 0.041,-0.0164 z m 0.125,-0.0312 c -0.0104,-0.0104 -0.0373,-0.0115 -0.0599,-0.002 -0.0249,0.01 -0.0175,0.0174 0.0189,0.0189 0.0329,0.001 0.0514,-0.006 0.041,-0.0164 z m 0.125,-0.0312 c -0.0104,-0.0104 -0.0373,-0.0115 -0.0599,-0.002 -0.0249,0.01 -0.0175,0.0174 0.0189,0.0189 0.0329,0.001 0.0514,-0.006 0.041,-0.0164 z m 0.21875,-0.0625 c -0.0104,-0.0104 -0.0373,-0.0115 -0.0599,-0.002 -0.0249,0.01 -0.0175,0.0174 0.0189,0.0189 0.0329,0.001 0.0514,-0.006 0.041,-0.0164 z m 0.125,-0.0312 c -0.0104,-0.0104 -0.0373,-0.0115 -0.0599,-0.002 -0.0249,0.01 -0.0175,0.0174 0.0189,0.0189 0.0329,10e-4 0.0514,-0.006 0.041,-0.0164 z m 0.125,-0.0312 c -0.0104,-0.0104 -0.0373,-0.0115 -0.0599,-0.002 -0.0249,0.01 -0.0175,0.0174 0.0189,0.0189 0.0329,0.001 0.0514,-0.006 0.041,-0.0164 z m 0.21875,-0.0625 c -0.0104,-0.0104 -0.0373,-0.0115 -0.0599,-0.002 -0.0249,0.01 -0.0175,0.0174 0.0189,0.0189 0.0329,0.001 0.0514,-0.006 0.041,-0.0164 z m 0.18033,-0.0436 c 0.0394,-0.0169 0.0452,-0.0268 0.0156,-0.0268 -0.0258,0 -0.075,0.0121 -0.10938,0.0268 -0.0394,0.0169 -0.0452,0.0269 -0.0156,0.0269 0.0258,0 0.075,-0.0121 0.10937,-0.0269 z m 0.16342,-0.0501 c -0.0104,-0.0104 -0.0373,-0.0115 -0.0599,-0.002 -0.0249,0.01 -0.0175,0.0174 0.0189,0.0189 0.0329,10e-4 0.0514,-0.006 0.041,-0.0164 z m 0.3125,-0.0937 c -0.0104,-0.0104 -0.0373,-0.0115 -0.0599,-0.002 -0.0249,0.01 -0.0175,0.0174 0.0189,0.0189 0.0329,0.001 0.0514,-0.006 0.041,-0.0164 z m 0.36783,-0.10612 c 0.0394,-0.0169 0.0452,-0.0268 0.0156,-0.0268 -0.0258,0 -0.075,0.0121 -0.10938,0.0268 -0.0394,0.0169 -0.0452,0.0269 -0.0156,0.0269 0.0258,0 0.075,-0.0121 0.10937,-0.0269 z m 0.791,-0.25324 c 0.2632,-0.0877 0.47319,-0.16486 0.46664,-0.17141 -0.007,-0.007 -0.23595,0.0641 -0.50977,0.15709 -0.27383,0.093 -0.48382,0.17008 -0.46665,0.17141 0.0172,0.001 0.24657,-0.0694 0.50978,-0.15709 z m 0.74259,-0.25913 c 0.58941,-0.20392 2.18685,-0.85573 2.16087,-0.88171 -0.007,-0.007 -0.1445,0.0455 -0.30638,0.11589 -0.4137,0.17985 -1.15656,0.47608 -1.6537,0.65946 -0.38158,0.14075 -0.47821,0.18123 -0.43256,0.18123 0.008,0 0.11275,-0.0337 0.23177,-0.0749 z m 2.38829,-0.972 c 0.0773,-0.0414 0.12656,-0.0753 0.10937,-0.0753 -0.0172,0 -0.0945,0.0339 -0.17187,0.0753 -0.0773,0.0414 -0.12656,0.0753 -0.10938,0.0753 0.0172,0 0.0945,-0.0339 0.17188,-0.0753 z m 0.34375,-0.15625 c 0.0773,-0.0414 0.12656,-0.0753 0.10937,-0.0753 -0.0172,0 -0.0945,0.0339 -0.17187,0.0753 -0.0773,0.0414 -0.12656,0.0753 -0.10938,0.0753 0.0172,0 0.0945,-0.0339 0.17188,-0.0753 z m 0.7816,-0.37517 c 0.29199,-0.14619 0.5309,-0.27283 0.5309,-0.28143 0,-0.014 -1.05936,0.50555 -1.09115,0.53511 -0.0468,0.0436 0.0931,-0.0198 0.56025,-0.25368 z m 0.99965,-0.53235 c 0,-0.009 -0.0563,0.0131 -0.125,0.0481 -0.0688,0.0351 -0.125,0.0708 -0.125,0.0794 0,0.009 0.0562,-0.0131 0.125,-0.0481 0.0687,-0.0351 0.125,-0.0708 0.125,-0.0794 z m 0.5625,-0.31343 c 0,-0.009 -0.0281,-5.7e-4 -0.0625,0.0178 -0.0344,0.0184 -0.0625,0.0405 -0.0625,0.0491 0,0.009 0.0281,5.7e-4 0.0625,-0.0178 0.0344,-0.0184 0.0625,-0.0405 0.0625,-0.0491 z m 18.09375,-0.77795 c 0,-0.008 -0.0316,-0.0299 -0.0703,-0.0486 -0.0675,-0.0327 -0.0679,-0.0321 -0.01,0.0145 0.0638,0.0511 0.08,0.058 0.08,0.0341 z m -0.28125,-0.15625 c 0,-0.008 -0.0316,-0.0299 -0.0703,-0.0486 -0.0675,-0.0327 -0.0679,-0.0321 -0.01,0.0145 0.0638,0.0511 0.08,0.058 0.08,0.0341 z m -0.28125,-0.15655 c 0,-0.008 -0.0422,-0.0366 -0.0937,-0.0633 -0.11753,-0.0608 -0.12464,-0.0344 -0.008,0.029 0.0982,0.0533 0.10156,0.0544 0.10156,0.0343 z m -0.28125,-0.15595 c 0,-0.008 -0.0316,-0.0299 -0.0703,-0.0486 -0.0675,-0.0327 -0.0679,-0.0321 -0.01,0.0145 0.0638,0.0511 0.08,0.058 0.08,0.0341 z m -0.21875,-0.125 c 0,-0.008 -0.0316,-0.0299 -0.0703,-0.0486 -0.0675,-0.0327 -0.0679,-0.0321 -0.01,0.0145 0.0638,0.0511 0.08,0.058 0.08,0.0341 z m -0.21875,-0.125 c 0,-0.008 -0.0316,-0.0299 -0.0703,-0.0486 -0.0675,-0.0327 -0.0679,-0.0321 -0.01,0.0145 0.0638,0.0511 0.08,0.058 0.08,0.0341 z m -0.15625,-0.0937 c 0,-0.008 -0.0316,-0.0299 -0.0703,-0.0486 -0.0675,-0.0327 -0.0679,-0.0321 -0.01,0.0145 0.0638,0.0511 0.08,0.058 0.08,0.0341 z m -0.375,-0.21875 c 0,-0.008 -0.0316,-0.0299 -0.0703,-0.0486 -0.0675,-0.0327 -0.0679,-0.0321 -0.01,0.0145 0.0638,0.0511 0.08,0.058 0.08,0.0341 z m -0.21608,-0.13555 c -0.11879,-0.0835 -0.33412,-0.20603 -0.29954,-0.17043 0.0377,0.0388 0.3373,0.226 0.35937,0.22452 0.009,-5.7e-4 -0.0183,-0.0249 -0.0598,-0.0541 z m -0.34642,-0.2082 c 0,-0.008 -0.0316,-0.0299 -0.0703,-0.0486 -0.0675,-0.0327 -0.0679,-0.0321 -0.01,0.0145 0.0638,0.0511 0.08,0.058 0.08,0.0341 z m -0.20312,-0.12938 c -0.08,-0.0617 -0.17188,-0.11226 -0.17188,-0.0946 0,0.0159 0.19556,0.14397 0.21875,0.14327 0.009,-2.5e-4 -0.0125,-0.0221 -0.0469,-0.0486 z m -0.26356,-0.16595 c -0.0944,-0.0726 -0.27901,-0.17911 -0.23644,-0.13646 0.0419,0.042 0.27593,0.19649 0.29631,0.19562 0.009,-3.8e-4 -0.018,-0.027 -0.0599,-0.0592 z m -0.28332,-0.1701 c 0,-0.011 -0.23771,-0.17218 -0.42187,-0.28605 -0.17178,-0.1062 -0.0344,0.006 0.18716,0.15255 0.21954,0.14545 0.23471,0.15408 0.23471,0.1335 z m -1,-0.65972 c 0,-0.008 -0.10898,-0.0882 -0.24219,-0.17798 -1.34535,-0.90717 -3.07651,-2.26694 -4.34723,-3.41461 -0.22965,-0.20741 -0.47772,-0.42962 -0.55127,-0.4938 l -0.13372,-0.1167 -0.4053,0.50732 c -0.58585,0.73331 -1.05046,1.2523 -1.88097,2.10107 -0.40362,0.4125 -0.58726,0.60937 -0.40808,0.4375 0.81186,-0.77876 1.45754,-1.47523 2.21542,-2.38969 0.25798,-0.31127 0.47619,-0.5689 0.48492,-0.57251 0.009,-0.004 0.36448,0.29692 0.79058,0.66783 1.5386,1.33933 2.72195,2.2611 4.32159,3.3663 0.15171,0.10482 0.15625,0.10729 0.15625,0.0853 z m -9.02726,-0.19626 c 0.0389,-0.0496 0.0378,-0.0507 -0.0118,-0.0118 -0.0301,0.0236 -0.0547,0.0482 -0.0547,0.0547 0,0.0257 0.0257,0.009 0.0665,-0.0429 z m 0.2636,-0.23438 0.0918,-0.10156 -0.10156,0.0918 c -0.0947,0.0856 -0.11593,0.11134 -0.0918,0.11134 0.005,0 0.0511,-0.0457 0.10156,-0.10156 z m 0.31054,-0.27344 c 0.0846,-0.0859 0.14686,-0.15625 0.13827,-0.15625 -0.009,0 -0.0849,0.0703 -0.16952,0.15625 -0.0847,0.0859 -0.14687,0.15625 -0.13828,0.15625 0.009,0 0.0849,-0.0703 0.16953,-0.15625 z"
           style="fill:#abcdef;fill-opacity:1;stroke:none;stroke-width:0.03125;stroke-opacity:1" />
        <path
           inkscape:connector-curvature="0"
           id="path974"
           d="m 138.96563,168.49871 c -3.44679,-0.11114 -15.74861,-0.48844 -36.54688,-1.12091 -5.92109,-0.18005 -11.51094,-0.3516 -12.42188,-0.3812 -1.12081,-0.0364 -2.17148,-0.0502 -3.25,-0.0426 -2.88874,0.0204 -4.30424,0.0129 -4.92187,-0.0262 -3.223692,-0.20427 -6.209536,-0.76097 -9.203125,-1.71589 l -0.375,-0.11962 -0.0078,-13.39683 -0.0078,-13.39684 H 107.02809 141.825 v 15.14063 15.14062 l -0.30469,-0.004 c -0.16758,-0.002 -1.31718,-0.0369 -2.55468,-0.0769 z m -29.13664,-12.87979 c 0.0389,-0.0496 0.0378,-0.0507 -0.0118,-0.0118 -0.0301,0.0236 -0.0547,0.0482 -0.0547,0.0547 0,0.0257 0.0257,0.009 0.0665,-0.0429 z m 0.32428,-0.3911 0.12514,-0.14693 0.26548,0.22226 0.26549,0.22225 -0.25,-0.23695 c -0.1375,-0.13032 -0.26204,-0.2376 -0.27676,-0.2384 -0.0278,-0.001 -0.0507,0.0249 -0.26996,0.31105 -0.1368,0.17854 -0.0754,0.12038 0.14061,-0.13328 z"
           style="fill:#abcdef;fill-opacity:1;stroke:none;stroke-width:0.03125;stroke-opacity:1" />
      </g>
    </g>
  </g>
</svg>
