#define bullet2_width 13
#define bullet2_height 13
static unsigned char bullet2_bits[] = {
   0x08, 0x00, 0x10, 0x00, 0x20, 0x00, 0x40, 0x00, 0x80, 0x00, 0x00, 0x01,
   0x00, 0x02, 0x00, 0x01, 0x80, 0x00, 0x40, 0x00, 0x20, 0x00, 0x10, 0x00,
   0x08, 0x00 };
