#define desk_width 16
#define desk_height 16
static unsigned char desk_bits[] = {
   0x01, 0x44, 0x01, 0x44, 0xff, 0x47, 0x00, 0x00, 0xff, 0xe7, 0x01, 0xe4,
   0x01, 0xe4, 0x01, 0x04, 0x01, 0x44, 0x01, 0x44, 0xff, 0x47, 0x00, 0x40,
   0xff, 0x47, 0x01, 0x44, 0x01, 0x44, 0x00, 0x00 };
