<?xml version="1.0" encoding="UTF-8" standalone="no"?>
<!-- Created with Inkscape (http://www.inkscape.org/) -->

<svg
   width="128.0px"
   height="128.0px"
   viewBox="0 0 128.0 128.0"
   version="1.1"
   id="SVGRoot"
   sodipodi:docname="gap.svg"
   inkscape:version="1.1.1 (3bf5ae0d25, 2021-09-20)"
   xmlns:inkscape="http://www.inkscape.org/namespaces/inkscape"
   xmlns:sodipodi="http://sodipodi.sourceforge.net/DTD/sodipodi-0.dtd"
   xmlns="http://www.w3.org/2000/svg"
   xmlns:svg="http://www.w3.org/2000/svg">
  <sodipodi:namedview
     id="namedview73"
     pagecolor="#ffffff"
     bordercolor="#666666"
     borderopacity="1.0"
     inkscape:pageshadow="2"
     inkscape:pageopacity="0.0"
     inkscape:pagecheckerboard="0"
     inkscape:document-units="px"
     showgrid="true"
     inkscape:zoom="1.3932941"
     inkscape:cx="255.50959"
     inkscape:cy="214.95821"
     inkscape:window-width="1852"
     inkscape:window-height="1016"
     inkscape:window-x="0"
     inkscape:window-y="0"
     inkscape:window-maximized="1"
     inkscape:current-layer="_5_6_">
    <inkscape:grid
       type="xygrid"
       id="grid79" />
  </sodipodi:namedview>
  <defs
     id="defs68">
    <linearGradient
       id="Ballon_Logo_1_"
       gradientUnits="userSpaceOnUse"
       x1="87.715797"
       y1="64.081802"
       x2="87.715797"
       y2="63.674801"
       gradientTransform="matrix(177.5143,0,0,-178.254,-15327.367,11459.094)">
      <stop
         offset="0"
         style="stop-color:#8056E1"
         id="stop4" />
      <stop
         offset="1"
         style="stop-color:#6843BD"
         id="stop6" />
    </linearGradient>
    <linearGradient
       id="SVGID_1_"
       gradientUnits="userSpaceOnUse"
       x1="215.3544"
       y1="2.2133"
       x2="215.3544"
       y2="75.802399"
       gradientTransform="translate(28.044,33.5)">
      <stop
         offset="0"
         style="stop-color:#00EE8F"
         id="stop10" />
      <stop
         offset="1"
         style="stop-color:#0087EF"
         id="stop12" />
    </linearGradient>
    <linearGradient
       id="linearGradient167"
       gradientUnits="userSpaceOnUse"
       x1="87.715797"
       y1="64.081802"
       x2="87.715797"
       y2="63.674801"
       gradientTransform="matrix(177.5143,0,0,-178.254,-15355.411,11425.594)">
      <stop
         offset="0"
         style="stop-color:#8056E1"
         id="stop163" />
      <stop
         offset="1"
         style="stop-color:#6843BD"
         id="stop165" />
    </linearGradient>
    <linearGradient
       id="linearGradient174"
       gradientUnits="userSpaceOnUse"
       x1="215.3544"
       y1="2.2133"
       x2="215.3544"
       y2="75.802399">
      <stop
         offset="0"
         style="stop-color:#00EE8F"
         id="stop170" />
      <stop
         offset="1"
         style="stop-color:#0087EF"
         id="stop172" />
    </linearGradient>
  </defs>
  <g
     inkscape:label="Layer 1"
     inkscape:groupmode="layer"
     id="layer1">
    <g
       id="_5_6_"
       transform="matrix(1.3973492,0,0,1.4342632,-278.32392,-41.609576)">
      <path
         id="Ballon_Logo_6_"
         class="st0"
         d="m 217.044,47.8 c 12.5,-13.4 33,-15.4 47.8,-4.5 13.9,10.3 18.7,29 11.3,44.7 -1.3,2.8 -2.5,6 -1.9,9.2 0.4,2.5 2,4.5 3.8,6.1 0.6,0.7 1.7,1.3 1.6,2.5 -0.7,0.7 -1.6,0.9 -2.5,1 -4.5,0.4 -9.1,-0.5 -13.1,-2.5 -1.4,-0.9 -2.9,0.2 -4.3,0.8 -16.4,8.2 -36.3,2.8 -46.3,-12.6 -4,-6.1 -6.1,-13.3 -6,-20.5 l 0.3,-3.7 c 0.8,-7.8 4.1,-15 9.3,-20.5 z"
         style="fill:url(#Ballon_Logo_1_)" />
      <path
         class="st1"
         d="m 279.144,104.5 c -2.7,-2.7 -5.5,-5 -4.4,-11.1 1.2,-5.2 2.5,-5.1 4.5,-13.1 1.3,-5.8 1.3,-15 -2.5,-23.1 -4.1,-9 -11,-15.4 -20.8,-19.4 -7.3,-2.6 -15.2,-2.9 -22.7,-0.8 -3,1 -17.9,5.4 -24.4,23.1 -0.9,2.4 -4.6,13.4 0.9,26.8 3.8,8.2 8.6,13.9 18.2,18.9 11.1,5.2 22.2,3.7 28.5,1.2 3.2,-1.3 5.5,-2.8 7,-2.6 1.4,0.3 3,1.4 5,2 2.4,0.6 4.7,1 8.7,0.9 v 0 c 1.3,-0.2 4.4,-0.7 2,-2.8 z m -8.4,-2.7 c -3.1,-0.8 -3.4,-1.4 -6,-2.3 -0.7,-0.1 -2.7,-0.8 -7.2,1.5 -6.6,3.2 -11.6,3.3 -15,3.3 -18.3,-0.6 -25.8,-14.8 -26.6,-16.1 -5.5,-9.1 -4.2,-17.8 -3.8,-21.2 2.4,-11.4 7.9,-16 10.6,-18.5 8.6,-7.5 16.8,-7.6 21.7,-7.6 5.8,0 11.4,1.8 16.2,5 6.3,4 11.3,11 13.2,17.7 2.6,8.8 1.1,16.3 -3,24.6 -3.7,7.1 -0.1,13.6 -0.1,13.6 z"
         id="path15"
         style="fill:url(#SVGID_1_)" />
      <path
         id="_3line_6_"
         class="st2"
         d="m 231.244,81 h 8.2 c 2.2,0 3.9,1.7 4,3.9 0,2.2 -1.7,3.9 -3.9,4 0,0 -0.1,0 -0.1,0 h -8.2 c -2.2,0 -3.9,-1.7 -4,-3.9 0,-2.2 1.8,-4 4,-4 0,0 0,0 0,0 z m 0,-12 h 24.2 c 2.2,0 3.9,1.8 3.9,3.9 0,2.1 -1.8,3.9 -3.9,3.9 h -24.2 c -2.2,0 -3.9,-1.8 -3.9,-3.9 0,-2.1 1.7,-3.9 3.9,-3.9 z m 16,-12.1 h 8.2 c 2.2,0 3.9,1.7 4,3.9 0,2.2 -1.7,3.9 -3.9,4 0,0 -0.1,0 -0.1,0 h -8.2 c -2.2,0 -3.9,-1.7 -4,-3.9 0.1,-2.2 1.8,-3.9 4,-4 0,0 0,0 0,0 z"
         style="fill:#ffffff;fill-opacity:1" />
    </g>
  </g>
</svg>
