<?xml version="1.0" encoding="UTF-8" standalone="no"?>
<svg
   width="48"
   height="48"
   version="1.1"
   id="svg57"
   sodipodi:docname="breeze-paye.svg"
   inkscape:version="1.1.1 (3bf5ae0d25, 2021-09-20)"
   xmlns:inkscape="http://www.inkscape.org/namespaces/inkscape"
   xmlns:sodipodi="http://sodipodi.sourceforge.net/DTD/sodipodi-0.dtd"
   xmlns:xlink="http://www.w3.org/1999/xlink"
   xmlns="http://www.w3.org/2000/svg"
   xmlns:svg="http://www.w3.org/2000/svg">
  <sodipodi:namedview
     id="namedview59"
     pagecolor="#ffffff"
     bordercolor="#666666"
     borderopacity="1.0"
     inkscape:pageshadow="2"
     inkscape:pageopacity="0.0"
     inkscape:pagecheckerboard="0"
     showgrid="false"
     inkscape:zoom="16.291667"
     inkscape:cx="24"
     inkscape:cy="23.969309"
     inkscape:window-width="1852"
     inkscape:window-height="1016"
     inkscape:window-x="0"
     inkscape:window-y="0"
     inkscape:window-maximized="1"
     inkscape:current-layer="svg57" />
  <defs
     id="defs31">
    <linearGradient
       id="a"
       y1="543.8"
       y2="513.8"
       x2="0"
       gradientUnits="userSpaceOnUse"
       gradientTransform="matrix(1.125 0 0 1-51.07 0)">
      <stop
         stop-color="#197cf1"
         id="stop2" />
      <stop
         offset="1"
         stop-color="#20bcfa"
         id="stop4" />
    </linearGradient>
    <linearGradient
       xlink:href="#a"
       id="b"
       y1="44"
       y2="11"
       x2="0"
       gradientUnits="userSpaceOnUse" />
    <linearGradient
       id="c"
       y1="10"
       y2="14"
       x2="0"
       gradientUnits="userSpaceOnUse">
      <stop
         stop-color="#1d1e1e"
         id="stop8" />
      <stop
         offset="1"
         stop-color="#44484c"
         id="stop10" />
    </linearGradient>
    <linearGradient
       xlink:href="#a"
       id="d"
       y1="14"
       y2="10"
       gradientUnits="userSpaceOnUse"
       x2="0" />
    <linearGradient
       xlink:href="#a"
       id="e"
       y1="516.8"
       y2="503.8"
       x2="0"
       gradientUnits="userSpaceOnUse"
       gradientTransform="translate(-384.57,-499.8)" />
    <linearGradient
       id="f"
       y1="18"
       y2="15"
       x2="0"
       gradientUnits="userSpaceOnUse">
      <stop
         stop-color="#c6cdd1"
         id="stop15" />
      <stop
         offset="1"
         stop-color="#e0e5e7"
         id="stop17" />
    </linearGradient>
    <linearGradient
       xlink:href="#f"
       id="g"
       y1="517.8"
       y2="514.8"
       x2="0"
       gradientUnits="userSpaceOnUse"
       gradientTransform="translate(-384.57,-499.8)" />
    <linearGradient
       id="h"
       y1="19"
       y2="3"
       x2="0"
       gradientUnits="userSpaceOnUse"
       gradientTransform="translate(13,18)">
      <stop
         stop-color="#7cbaf8"
         id="stop21" />
      <stop
         offset="1"
         stop-color="#f4fcff"
         id="stop23" />
    </linearGradient>
    <linearGradient
       id="i"
       y1="23"
       x1="16"
       y2="39"
       x2="32"
       gradientUnits="userSpaceOnUse">
      <stop
         stop-color="#292c2f"
         id="stop26" />
      <stop
         offset="1"
         stop-opacity="0"
         id="stop28" />
    </linearGradient>
    <linearGradient
       inkscape:collect="always"
       xlink:href="#a"
       id="linearGradient876"
       gradientUnits="userSpaceOnUse"
       gradientTransform="matrix(1.125,0,0,1,-435.64,-499.8)"
       y1="543.8"
       x2="0"
       y2="513.8" />
    <linearGradient
       inkscape:collect="always"
       xlink:href="#f"
       id="linearGradient878"
       gradientUnits="userSpaceOnUse"
       y1="18"
       x2="0"
       y2="15" />
  </defs>
  <path
     fill="url(#b)"
     fill-rule="evenodd"
     d="m 9,11 v 2 l 1,-1 z m 30,0 -1,1 1,1 z"
     id="path33"
     style="fill:url(#b)" />
  <rect
     width="36"
     x="6.0000072"
     y="13.999988"
     fill="url(#a)"
     rx="0"
     height="30"
     id="rect35"
     style="fill:url(#linearGradient876)" />
  <rect
     width="36"
     x="6.0000072"
     y="42.999989"
     fill="#1c5593"
     height="1"
     id="rect39" />
  <path
     fill-rule="evenodd"
     fill="url(#d)"
     d="m 10,10 -1,1 1,1 -4,2 h 36 l -4,-2 1,-1 -1,-1 H 24 Z"
     id="path41"
     style="fill:url(#d)" />
  <path
     fill-rule="evenodd"
     d="m 10,10 -1,1 1,1 -4,2 h 36 l -4,-2 1,-1 -1,-1 H 24 Z"
     opacity="0.6"
     fill="url(#c)"
     id="path43"
     style="fill:url(#c)" />
  <path
     opacity="0.2"
     d="M 10,10 9,11 H 39 L 38,10 H 24 Z"
     id="path45" />
  <path
     fill="url(#e)"
     d="m 16,17 v -5 c 0,-4.432 3.568,-8 8,-8 4.432,0 8,3.568 8,8 v 5 H 31 V 12 C 31,8.122 27.878,5 24,5 20.122,5 17,8.122 17,12 v 5 z"
     id="path47"
     style="fill:url(#e)" />
  <path
     fill="url(#g)"
     d="m 16.50143,14.998 a 1.5,1.5 0 0 1 1.5,1.5 1.5,1.5 0 0 1 -1.5,1.5 1.5,1.5 0 0 1 -1.5,-1.5 1.5,1.5 0 0 1 1.5,-1.5 m 0,1 a 0.5,0.5 0 0 0 -0.5,0.5 0.5,0.5 0 0 0 0.5,0.5 0.5,0.5 0 0 0 0.5,-0.5 0.5,0.5 0 0 0 -0.5,-0.5"
     id="path49"
     style="fill:url(#g)" />
  <path
     fill="url(#f)"
     d="M 31.5,15 A 1.5,1.5 0 0 0 30,16.5 1.5,1.5 0 0 0 31.5,18 1.5,1.5 0 0 0 33,16.5 1.5,1.5 0 0 0 31.5,15 m 0,1 A 0.5,0.5 0 0 1 32,16.5 0.5,0.5 0 0 1 31.5,17 0.5,0.5 0 0 1 31,16.5 0.5,0.5 0 0 1 31.5,16"
     id="path51"
     style="fill:url(#linearGradient878)" />
  <path
     style="color:#232629;fill:#ffffff;fill-opacity:1;stroke:none"
     d="m 23.903852,21.314179 a 6,6 0 0 0 -6,5.999999 6,6 0 0 0 0.0039,0.128906 4,4 0 0 0 -3.00391,3.871094 4,4 0 0 0 4,4 h 9 a 5,5 0 0 0 5,-5 5,5 0 0 0 -3.242188,-4.675781 6,6 0 0 0 -5.757812,-4.324218 z m 0,0.999999 a 5,5 0 0 1 4.919922,4.111329 4.0000019,4.0000019 0 0 1 3.080078,3.888671 4.0000019,4.0000019 0 0 1 -4,4 h -9 a 2.9999979,2.9999979 0 0 1 -3,-3 2.9999979,2.9999979 0 0 1 3,-3 2.9999979,2.9999979 0 0 1 0.107422,0.0059 5,5 0 0 1 -0.107422,-1.005859 5,5 0 0 1 5,-5 z"
     class="ColorScheme-Text"
     id="path4" />
</svg>
