<?xml version="1.0" encoding="UTF-8" standalone="no"?>
<svg
   width="48"
   height="48"
   version="1.1"
   id="svg57"
   sodipodi:docname="breeze-camera.svg"
   inkscape:version="1.1.1 (3bf5ae0d25, 2021-09-20)"
   xmlns:inkscape="http://www.inkscape.org/namespaces/inkscape"
   xmlns:sodipodi="http://sodipodi.sourceforge.net/DTD/sodipodi-0.dtd"
   xmlns:xlink="http://www.w3.org/1999/xlink"
   xmlns="http://www.w3.org/2000/svg"
   xmlns:svg="http://www.w3.org/2000/svg">
  <sodipodi:namedview
     id="namedview59"
     pagecolor="#ffffff"
     bordercolor="#666666"
     borderopacity="1.0"
     inkscape:pageshadow="2"
     inkscape:pageopacity="0.0"
     inkscape:pagecheckerboard="0"
     showgrid="false"
     inkscape:zoom="13.125"
     inkscape:cx="23.961905"
     inkscape:cy="24"
     inkscape:window-width="1920"
     inkscape:window-height="1005"
     inkscape:window-x="0"
     inkscape:window-y="0"
     inkscape:window-maximized="1"
     inkscape:current-layer="svg57" />
  <defs
     id="defs25">
    <linearGradient
       spreadMethod="reflect"
       id="a"
       x1="428.57"
       x2="408.57"
       gradientUnits="userSpaceOnUse"
       gradientTransform="translate(-384.57,-499.8)">
      <stop
         stop-color="#2f3943"
         id="stop2" />
      <stop
         offset="1"
         stop-color="#808c9b"
         id="stop4" />
    </linearGradient>
    <linearGradient
       id="b"
       y1="-511.2"
       x1="-395.07"
       y2="-535.8"
       x2="-419.67"
       gradientUnits="userSpaceOnUse"
       gradientTransform="translate(384.57,499.8)">
      <stop
         stop-color="#18222a"
         id="stop7" />
      <stop
         offset="1"
         stop-color="#566069"
         id="stop9" />
    </linearGradient>
    <linearGradient
       id="c"
       y1="-514"
       x1="-398.07"
       y2="-533.13"
       x2="-417.2"
       gradientUnits="userSpaceOnUse">
      <stop
         stop-color="#2e5d89"
         id="stop12" />
      <stop
         offset="1"
         stop-color="#1b92f4"
         id="stop14" />
    </linearGradient>
    <linearGradient
       id="d"
       y1="536.87"
       x1="421.64"
       y2="511.82"
       gradientUnits="userSpaceOnUse"
       x2="396.59"
       gradientTransform="matrix(-1 0 0-1 817.14 1047.6)">
      <stop
         stop-color="#197cf1"
         id="stop17" />
      <stop
         offset="1"
         stop-color="#20bcfa"
         id="stop19" />
    </linearGradient>
    <linearGradient
       xlink:href="#d"
       id="e"
       y1="532.23"
       x1="417"
       y2="508.73"
       gradientUnits="userSpaceOnUse"
       x2="393.5"
       gradientTransform="rotate(180,216.285,273.9)" />
    <linearGradient
       xlink:href="#d"
       id="f"
       y1="529.62"
       x1="414.4"
       y2="506.91"
       gradientUnits="userSpaceOnUse"
       x2="391.69"
       gradientTransform="rotate(180,216.285,273.9)" />
    <linearGradient
       xlink:href="#c"
       id="g"
       y1="-516.8"
       x1="-401.07"
       y2="-541.3"
       x2="-425.57"
       gradientUnits="userSpaceOnUse"
       gradientTransform="translate(384.57,499.8)" />
    <linearGradient
       inkscape:collect="always"
       xlink:href="#c"
       id="linearGradient61"
       gradientUnits="userSpaceOnUse"
       x1="-398.07"
       y1="-514"
       x2="-417.2"
       y2="-533.13"
       gradientTransform="translate(384.57,499.8)" />
    <linearGradient
       inkscape:collect="always"
       xlink:href="#d"
       id="linearGradient63"
       gradientUnits="userSpaceOnUse"
       gradientTransform="rotate(180,216.285,273.9)"
       x1="421.64"
       y1="536.87"
       x2="396.59"
       y2="511.82" />
  </defs>
  <rect
     width="40"
     x="4.0000072"
     y="3.9999878"
     fill="url(#a)"
     rx="20"
     height="40"
     id="rect27"
     style="fill:url(#a);stroke-width:2.8;stroke-opacity:0.55" />
  <rect
     width="36"
     x="-42.000008"
     y="-41.999989"
     fill="url(#b)"
     rx="18"
     height="36"
     transform="scale(-1)"
     id="rect29"
     style="fill:url(#b);stroke-width:2.8;stroke-opacity:0.55" />
  <rect
     width="30"
     x="-38.999989"
     y="-39.000008"
     fill="#26333a"
     rx="15"
     height="30"
     transform="matrix(0,-1,-1,0,0,0)"
     id="rect31"
     style="stroke-width:2.8;stroke-opacity:0.55" />
  <rect
     width="28"
     x="-38.000008"
     y="-37.999989"
     fill="url(#c)"
     rx="14"
     height="28"
     transform="scale(-1)"
     id="rect33"
     style="fill:url(#linearGradient61);stroke-width:2.8;stroke-opacity:0.55" />
  <rect
     width="20"
     x="-34.000008"
     y="-33.999989"
     fill="url(#g)"
     rx="10"
     height="20"
     transform="scale(-1)"
     id="rect35"
     style="fill:url(#g);stroke-width:2.8;stroke-opacity:0.55" />
  <path
     fill="url(#d)"
     d="m 24,10 c -7.756,0 -14,6.244 -14,14 0,7.756 6.244,14 14,14 7.756,0 14,-6.244 14,-14 0,-7.756 -6.244,-14 -14,-14 m 0,1 c 7.202,0 13,5.798 13,13 0,7.202 -5.798,13 -13,13 -7.202,0 -13,-5.798 -13,-13 0,-7.202 5.798,-13 13,-13"
     id="path37"
     style="fill:url(#linearGradient63);stroke-width:2.8;stroke-opacity:0.55" />
  <path
     fill="url(#e)"
     d="m 24,12 c -6.648,0 -12,5.352 -12,12 0,6.648 5.352,12 12,12 6.648,0 12,-5.352 12,-12 0,-6.648 -5.352,-12 -12,-12 m 0,3 c 4.986,0 9,4.01 9,9 0,4.986 -4.01,9 -9,9 -4.986,0 -9,-4.01 -9,-9 0,-4.986 4.01,-9 9,-9"
     id="path39"
     style="fill:url(#e);stroke-width:2.8;stroke-opacity:0.55" />
  <path
     fill="url(#f)"
     d="m 24,16 c -1.154,0 -2.247,0.247 -3.236,0.684 l 1.863,4.66 1.252,-0.332 2.045,-4.771 C 25.307,16.089 24.665,16.001 24,16.001 m 2.883,0.541 -1.977,4.611 1.125,0.648 4.818,-1.928 C 29.94,18.362 28.55,17.183 26.882,16.541 m -7.01,0.609 c -1.511,0.909 -2.69,2.299 -3.332,3.967 l 4.611,1.977 0.648,-1.125 z m 11.443,3.613 -4.66,1.863 0.332,1.252 4.771,2.045 c 0.152,-0.617 0.24,-1.259 0.24,-1.924 0,-1.154 -0.247,-2.247 -0.684,-3.236 m -15.08,1.312 c -0.152,0.617 -0.24,1.259 -0.24,1.924 0,1.154 0.247,2.247 0.684,3.236 l 4.66,-1.863 -0.332,-1.252 z m 10.607,2.83 -0.648,1.125 1.928,4.818 c 1.511,-0.909 2.69,-2.299 3.332,-3.967 z m -4.879,1.293 -4.818,1.928 c 0.909,1.511 2.299,2.69 3.967,3.332 l 1.977,-4.611 z m 3.404,0.457 -1.252,0.332 -2.045,4.771 c 0.617,0.152 1.259,0.24 1.924,0.24 1.154,0 2.247,-0.247 3.236,-0.684 z"
     id="path41"
     style="fill:url(#f);stroke-width:2.8;stroke-opacity:0.55" />
  <circle
     fill="#2c3e50"
     cx="33.651157"
     cy="4.4233847"
     r="2"
     stroke-linecap="round"
     color="#000000"
     stroke-width="3"
     transform="rotate(37.5)"
     id="circle45"
     style="stroke-linejoin:round" />
  <g
     fill="#84cbfe"
     stroke-width="2"
     id="g51"
     transform="translate(-384.57,-499.8)"
     style="stroke-linejoin:round">
    <path
       d="m 401.57143,513.798 a 2.999961,2.999961 0 0 0 -3,3 2.999961,2.999961 0 0 0 3,3 2.999961,2.999961 0 0 0 3,-3 2.999961,2.999961 0 0 0 -3,-3"
       id="path47" />
    <path
       d="m 405.57143,519.298 a 1.499994,1.499987 0 0 0 -1.5,1.5 1.499994,1.499987 0 0 0 1.5,1.5 1.499994,1.499987 0 0 0 1.5,-1.5 1.499994,1.499987 0 0 0 -1.5,-1.5"
       id="path49" />
  </g>
</svg>
