<?xml version="1.0" encoding="UTF-8" standalone="no"?>
<svg
   viewBox="0 0 22 22"
   version="1.1"
   id="svg6"
   sodipodi:docname="breeze-pyabr.svg"
   inkscape:version="1.1.1 (3bf5ae0d25, 2021-09-20)"
   xmlns:inkscape="http://www.inkscape.org/namespaces/inkscape"
   xmlns:sodipodi="http://sodipodi.sourceforge.net/DTD/sodipodi-0.dtd"
   xmlns="http://www.w3.org/2000/svg"
   xmlns:svg="http://www.w3.org/2000/svg">
  <sodipodi:namedview
     id="namedview8"
     pagecolor="#ffffff"
     bordercolor="#666666"
     borderopacity="1.0"
     inkscape:pageshadow="2"
     inkscape:pageopacity="0.0"
     inkscape:pagecheckerboard="0"
     showgrid="false"
     inkscape:zoom="33.045455"
     inkscape:cx="10.984869"
     inkscape:cy="10.969739"
     inkscape:window-width="1852"
     inkscape:window-height="1016"
     inkscape:window-x="0"
     inkscape:window-y="0"
     inkscape:window-maximized="1"
     inkscape:current-layer="svg6" />
  <defs
     id="defs3051">
    <style
       type="text/css"
       id="current-color-scheme">
      .ColorScheme-Text {
        color:#232629;
      }
      </style>
  </defs>
  <path
     style="fill:#fffff3;fill-opacity:1;stroke:none"
     d="M 11 4 A 6 6 0 0 0 5 10 A 6 6 0 0 0 5.0039062 10.128906 A 4 4 0 0 0 2 14 A 4 4 0 0 0 6 18 L 15 18 A 5 5 0 0 0 20 13 A 5 5 0 0 0 16.757812 8.3242188 A 6 6 0 0 0 11 4 z M 11 5 A 5 5 0 0 1 15.919922 9.1113281 A 4.0000019 4.0000019 0 0 1 19 13 A 4.0000019 4.0000019 0 0 1 15 17 L 6 17 A 2.9999979 2.9999979 0 0 1 3 14 A 2.9999979 2.9999979 0 0 1 6 11 A 2.9999979 2.9999979 0 0 1 6.1074219 11.005859 A 5 5 0 0 1 6 10 A 5 5 0 0 1 11 5 z "
     class="ColorScheme-Text"
     id="path4" />
  <path
     style="fill:#ffffff;fill-opacity:1;stroke-width:0.0302613"
     d="M 5.5043165,16.958818 C 4.904697,16.858515 4.3282125,16.558397 3.8862833,16.116467 3.504307,15.734491 3.2397365,15.277627 3.0963547,14.752407 c -0.061256,-0.224384 -0.069915,-0.322896 -0.067832,-0.771664 0.00217,-0.468199 0.00976,-0.538926 0.084374,-0.786795 0.2572787,-0.854664 0.7927557,-1.491958 1.5776122,-1.877585 0.3794333,-0.186428 0.7173845,-0.278092 1.1297162,-0.306418 l 0.2823984,-0.0194 -0.016512,-0.09362 C 5.9829789,10.312162 5.987936,9.5441954 6.098241,9.0178816 6.4681421,7.2529153 7.7111358,5.8403825 9.3961484,5.2701528 9.9939359,5.067854 10.267461,5.0262599 11,5.0262599 c 0.561546,0 0.69412,0.00936 0.968363,0.068362 1.929324,0.4150912 3.402451,1.8145717 3.871032,3.6775069 l 0.08281,0.3292132 0.302591,0.099001 c 1.12169,0.3669933 2.023412,1.201826 2.4741,2.290572 0.186586,0.450745 0.26209,0.819302 0.280693,1.370157 0.01811,0.536275 -0.02048,0.852456 -0.1603,1.313384 -0.386735,1.274907 -1.443574,2.311669 -2.720249,2.668574 -0.543986,0.152075 -0.414256,0.148714 -5.598349,0.145056 -2.662999,-0.0019 -4.911366,-0.01505 -4.9963715,-0.02927 z"
     id="path1468" />
  <path
     style="fill:#ffffff;fill-opacity:1;stroke-width:0.0302613"
     d="M 5.417391,17.956983 C 3.9358483,17.738418 2.687377,16.687728 2.2086468,15.256565 2.0735402,14.852664 2.0126507,14.460614 2.0125013,13.993641 c -3.371e-4,-1.054194 0.3747395,-1.986695 1.1052161,-2.747748 0.4528182,-0.471772 1.0137844,-0.832 1.6030528,-1.02941 l 0.2723522,-0.09124 0.00712,-0.2359366 C 5.1000854,6.5830463 7.7343097,4.0057167 11.00911,4.0102193 c 1.48792,0.00205 2.8473,0.522148 3.99687,1.5292121 0.69531,0.6091162 1.350049,1.5955265 1.656079,2.495 l 0.09783,0.2875266 0.26823,0.1169368 c 1.461264,0.6370504 2.522401,1.9628712 2.873292,3.5899912 0.09301,0.431301 0.101624,1.467625 0.01572,1.891334 -0.275989,1.361265 -1.064453,2.529872 -2.214242,3.281796 -0.478464,0.3129 -1.100311,0.565864 -1.73545,0.705974 -0.290888,0.06417 -0.312277,0.06445 -5.330574,0.07006 -2.7874962,0.0031 -5.1193597,-0.0063 -5.2194727,-0.02107 z M 15.94773,16.893481 c 1.530986,-0.420231 2.570294,-1.476327 2.956507,-3.004264 0.05991,-0.237 0.06872,-0.348733 0.06914,-0.876838 3.9e-4,-0.486035 -0.01066,-0.652903 -0.05611,-0.847317 -0.180496,-0.772083 -0.530908,-1.415106 -1.06798,-1.959795 -0.48526,-0.4921425 -1.009465,-0.8155437 -1.659468,-1.0237868 -0.116506,-0.037325 -0.227152,-0.079448 -0.24588,-0.093607 -0.01873,-0.014158 -0.04317,-0.08336 -0.05431,-0.1537819 C 15.857008,8.7279343 15.642133,8.114856 15.495208,7.808731 15.202276,7.1983975 14.664379,6.5278013 14.115547,6.0887074 13.424331,5.5357001 12.474141,5.1361311 11.607122,5.0338779 11.199851,4.9858459 10.367372,5.0187612 9.9965902,5.0975567 9.0081983,5.3076013 8.1924364,5.7523929 7.4730752,6.4734951 6.7474075,7.2009195 6.3093587,8.0060383 6.0934107,9.009274 c -0.1059919,0.4924097 -0.1090679,1.50121 -0.00586,1.922638 0.016062,0.06558 0.00905,0.0681 -0.1908701,0.06848 -0.2603653,5e-4 -0.6884402,0.08757 -0.9644712,0.196177 -0.9072382,0.356957 -1.5616078,1.079764 -1.8361519,2.028184 -0.062242,0.215017 -0.069721,0.303019 -0.068102,0.801377 0.00172,0.529807 0.00638,0.573631 0.086827,0.817056 0.3719353,1.125415 1.2725382,1.930851 2.3673585,2.1172 0.08056,0.01371 2.4001863,0.02296 5.154726,0.02054 l 5.008253,-0.0044 z"
     id="path1692" />
</svg>
